# xmcd CD database file
#
# Track frame offsets:
#	150
#	15646
#	32907
#	47518
#	62881
#	81208
#	100702
#	115825
#	133142
#	151243
#
# Disc length: 2202 seconds
#
# Revision: 2
# Processed by: cddbd v1.5.1PL0 Copyright (c) Steve Scherf et al.
# Submitted via: CDex 1.51
#
DISCID=7a08980a
DTITLE=Chad Brock - Yes!
DYEAR=1900
DGENRE=
TTITLE0=Yes!
TTITLE1=Hey Mister
TTITLE2=Young Enough To Know It All
TTITLE3=The Visit
TTITLE4=She Does
TTITLE5=Love Lives
TTITLE6=This
TTITLE7=You Had to Be There
TTITLE8=A Country Boy Can Survive
TTITLE9=If I Were You
EXTD=
EXTT0=
EXTT1=
EXTT2=
EXTT3=
EXTT4=
EXTT5=
EXTT6=
EXTT7=
EXTT8=
EXTT9=
PLAYORDER=
